<svg width="70" height="68" viewBox="0 0 70 68" fill="none" xmlns="http://www.w3.org/2000/svg">
<path d="M29.7857 65.7857H40.0714M1.5 26.5457C1.50277 21.6504 2.67018 16.8261 4.90578 12.4711C7.14139 8.11616 10.381 4.35557 14.3571 1.5M68.3571 26.5457C68.3544 21.6504 67.187 16.8261 64.9514 12.4711C62.7157 8.11616 59.4761 4.35557 55.5 1.5M55.5 27.2143C55.5 21.7584 53.3327 16.526 49.4748 12.6681C45.6169 8.8102 40.3845 6.64286 34.9286 6.64286C29.4727 6.64286 24.2403 8.8102 20.3824 12.6681C16.5245 16.526 14.3571 21.7584 14.3571 27.2143V45.2143C14.3571 47.2602 13.5444 49.2224 12.0977 50.6691C10.651 52.1158 8.68881 52.9286 6.64286 52.9286H63.2143C61.1683 52.9286 59.2062 52.1158 57.7595 50.6691C56.3128 49.2224 55.5 47.2602 55.5 45.2143V27.2143Z" stroke="#808080" stroke-width="3" stroke-linecap="round" stroke-linejoin="round"/>
</svg>
