<svg width="56" height="56" viewBox="0 0 56 56" fill="none" xmlns="http://www.w3.org/2000/svg">
<path d="M16.3333 32.6667H21C21.6188 32.6667 22.2123 32.4209 22.6499 31.9833C23.0875 31.5457 23.3333 30.9523 23.3333 30.3334C23.3333 29.7146 23.0875 29.1211 22.6499 28.6835C22.2123 28.2459 21.6188 28.0001 21 28.0001H16.3333C15.7145 28.0001 15.121 28.2459 14.6834 28.6835C14.2458 29.1211 14 29.7146 14 30.3334C14 30.9523 14.2458 31.5457 14.6834 31.9833C15.121 32.4209 15.7145 32.6667 16.3333 32.6667ZM30.3333 37.3334H16.3333C15.7145 37.3334 15.121 37.5792 14.6834 38.0168C14.2458 38.4544 14 39.0479 14 39.6668C14 40.2856 14.2458 40.8791 14.6834 41.3167C15.121 41.7543 15.7145 42.0001 16.3333 42.0001H30.3333C30.9522 42.0001 31.5457 41.7543 31.9832 41.3167C32.4208 40.8791 32.6667 40.2856 32.6667 39.6668C32.6667 39.0479 32.4208 38.4544 31.9832 38.0168C31.5457 37.5792 30.9522 37.3334 30.3333 37.3334ZM44.3333 4.66675H11.6667C9.81015 4.66675 8.02967 5.40425 6.71692 6.717C5.40416 8.02976 4.66667 9.81023 4.66667 11.6667V44.3334C4.66667 46.1899 5.40416 47.9704 6.71692 49.2832C8.02967 50.5959 9.81015 51.3334 11.6667 51.3334H44.3333C46.1899 51.3334 47.9703 50.5959 49.2831 49.2832C50.5958 47.9704 51.3333 46.1899 51.3333 44.3334V11.6667C51.3333 9.81023 50.5958 8.02976 49.2831 6.717C47.9703 5.40425 46.1899 4.66675 44.3333 4.66675ZM32.6667 9.33342V17.0101L29.1433 15.0501C28.7886 14.8453 28.3863 14.7375 27.9767 14.7375C27.5671 14.7375 27.1647 14.8453 26.81 15.0501L23.3333 17.0101V9.33342H32.6667ZM46.6667 44.3334C46.6667 44.9523 46.4208 45.5457 45.9833 45.9833C45.5457 46.4209 44.9522 46.6668 44.3333 46.6668H11.6667C11.0478 46.6668 10.4543 46.4209 10.0168 45.9833C9.57917 45.5457 9.33333 44.9523 9.33333 44.3334V11.6667C9.33333 11.0479 9.57917 10.4544 10.0168 10.0168C10.4543 9.57925 11.0478 9.33342 11.6667 9.33342H18.6667V21.0001C18.6691 21.4073 18.7781 21.8067 18.9828 22.1588C19.1874 22.5108 19.4807 22.8032 19.8333 23.0067C20.188 23.2115 20.5904 23.3194 21 23.3194C21.4096 23.3194 21.812 23.2115 22.1667 23.0067L28 19.7634L33.8567 23.0301C34.2054 23.2277 34.5992 23.3322 35 23.3334C35.6188 23.3334 36.2123 23.0876 36.6499 22.65C37.0875 22.2124 37.3333 21.6189 37.3333 21.0001V9.33342H44.3333C44.9522 9.33342 45.5457 9.57925 45.9833 10.0168C46.4208 10.4544 46.6667 11.0479 46.6667 11.6667V44.3334Z" fill="#B3B3B3"/>
</svg>
