<svg width="49" height="42" viewBox="0 0 49 42" fill="none" xmlns="http://www.w3.org/2000/svg">
<path d="M35.4375 0C30.9203 0 26.9653 1.9425 24.5 5.22594C22.0347 1.9425 18.0797 0 13.5625 0C9.96675 0.00405286 6.51942 1.43426 3.97684 3.97684C1.43426 6.51942 0.00405286 9.96675 0 13.5625C0 28.875 22.7041 41.2694 23.6709 41.7812C23.9258 41.9183 24.2106 41.9901 24.5 41.9901C24.7894 41.9901 25.0742 41.9183 25.3291 41.7812C26.2959 41.2694 49 28.875 49 13.5625C48.9959 9.96675 47.5657 6.51942 45.0232 3.97684C42.4806 1.43426 39.0333 0.00405286 35.4375 0ZM24.5 38.2375C20.5056 35.91 3.5 25.3072 3.5 13.5625C3.50347 10.8948 4.56474 8.33741 6.45107 6.45107C8.33741 4.56474 10.8948 3.50347 13.5625 3.5C17.8172 3.5 21.3894 5.76625 22.8812 9.40625C23.0131 9.72722 23.2374 10.0017 23.5256 10.1949C23.8138 10.3882 24.153 10.4913 24.5 10.4913C24.847 10.4913 25.1862 10.3882 25.4744 10.1949C25.7626 10.0017 25.9869 9.72722 26.1187 9.40625C27.6106 5.75969 31.1828 3.5 35.4375 3.5C38.1052 3.50347 40.6626 4.56474 42.5489 6.45107C44.4353 8.33741 45.4965 10.8948 45.5 13.5625C45.5 25.2897 28.49 35.9078 24.5 38.2375Z" fill="#B3B3B3"/>
</svg>
