<svg width="18" height="20" viewBox="0 0 18 20" fill="none" xmlns="http://www.w3.org/2000/svg">
<path d="M12.0004 15V16C12.0004 16.7956 11.6843 17.5587 11.1217 18.1213C10.5591 18.6839 9.79602 19 9.00037 19C8.20472 19 7.44165 18.6839 6.87905 18.1213C6.31644 17.5587 6.00037 16.7956 6.00037 16V15M12.0004 15H6.00037M12.0004 15H15.5904C15.9734 15 16.1654 15 16.3204 14.948C16.4662 14.8986 16.5986 14.8163 16.7073 14.7074C16.8161 14.5984 16.8982 14.4659 16.9474 14.32C17.0004 14.164 17.0004 13.972 17.0004 13.586C17.0004 13.417 17.0004 13.333 16.9864 13.252C16.9617 13.1006 16.9025 12.9569 16.8134 12.832C16.7654 12.765 16.7054 12.705 16.5864 12.586L16.1964 12.196C16.1342 12.1337 16.0848 12.0598 16.0512 11.9785C16.0176 11.8972 16.0003 11.81 16.0004 11.722V8C16.0004 7.08075 15.8193 6.1705 15.4675 5.32122C15.1157 4.47194 14.6001 3.70026 13.9501 3.05025C13.3001 2.40024 12.5284 1.88463 11.6792 1.53284C10.8299 1.18106 9.91962 1 9.00037 1C8.08111 1 7.17086 1.18106 6.32158 1.53284C5.4723 1.88463 4.70063 2.40024 4.05062 3.05025C3.40061 3.70026 2.88499 4.47194 2.53321 5.32122C2.18143 6.1705 2.00037 7.08075 2.00037 8V11.722C2.00043 11.81 1.98315 11.8972 1.94952 11.9785C1.91589 12.0598 1.86657 12.1337 1.80437 12.196L1.41437 12.586C1.29437 12.706 1.23537 12.765 1.18837 12.831C1.09839 12.956 1.0385 13.1001 1.01337 13.252C1.00037 13.332 1.00037 13.417 1.00037 13.586C1.00037 13.972 1.00037 14.164 1.05237 14.32C1.1017 14.4661 1.18414 14.5988 1.29326 14.7077C1.40237 14.8167 1.5352 14.8989 1.68137 14.948C1.83637 15 2.02737 15 2.41037 15H6.00037" stroke="black" stroke-width="2" stroke-linecap="round" stroke-linejoin="round"/>
</svg>
